<?xml version="1.0" encoding="UTF-8"?>
<svg id="Layer_1" data-name="Layer 1" xmlns="http://www.w3.org/2000/svg" viewBox="0 0 63 63">
  <defs>
    <style>
      .cls-1 {
        stroke: #000;
        stroke-miterlimit: 10;
      }
    </style>
  </defs>
  <path class="cls-1" d="m31.61,47.57c-16.58,0-30.07-7.97-30.07-17.78,0-5.51,4.17-10.6,11.43-13.98.48-.22,1.04-.01,1.27.46.22.48.01,1.04-.46,1.27-6.56,3.05-10.33,7.52-10.33,12.25,0,8.75,12.63,15.87,28.16,15.87s28.16-7.12,28.16-15.87-12.63-15.87-28.16-15.87c-1,0-2,.03-2.97.09-.53.03-.98-.37-1.01-.9-.03-.53.37-.98.9-1.01,1.01-.06,2.05-.09,3.09-.09,16.58,0,30.07,7.97,30.07,17.78s-13.49,17.78-30.07,17.78Z"/>
  <path class="cls-1" d="m31.61,61C15.03,61,1.54,46.68,1.54,29.07c0-.53.43-.95.95-.95s.95.43.95.95c0,16.56,12.63,30.02,28.16,30.02s28.16-13.47,28.16-30.02c0-.53.43-.95.95-.95s.95.43.95.95c0,17.61-13.49,31.93-30.07,31.93Z"/>
  <path class="cls-1" d="m36.36,23.5c-.24,0-.49-.09-.67-.28l-9.57-9.57c-.37-.37-.37-.98,0-1.35l9.57-9.57c.37-.37.98-.37,1.35,0s.37.98,0,1.35l-8.89,8.89,8.89,8.89c.37.37.37.98,0,1.35-.19.19-.43.28-.67.28Z"/>
  <path class="cls-1" d="m31.9,47.57h0c-.16,0-.27,0-.31,0,0,0-.12,0-.28,0-1.74,0-7.69-.27-11.28-3.73-.14-.14-1.25-1.29-1.16-2.94.06-1.12.65-2.14,1.76-3.02.09-.09,3.61-3.31,10.97-3.31s10.88,3.22,11.02,3.36c1.05.84,1.64,1.85,1.7,2.97.09,1.64-1.02,2.8-1.15,2.93-3.59,3.47-9.55,3.74-11.29,3.74Zm-.32-1.91h.32s0,0,0,0c1.11,0,6.81-.15,9.95-3.19h0s.63-.67.58-1.47c-.03-.55-.39-1.1-1.05-1.62-.08-.07-3.23-2.89-9.77-2.89s-9.69,2.82-9.72,2.84c-.72.58-1.07,1.13-1.1,1.68-.04.8.58,1.46.59,1.47,3.14,3.03,8.83,3.18,9.94,3.18h.26Z"/>
</svg>