<?xml version="1.0" encoding="UTF-8"?>
<svg id="Layer_1" data-name="Layer 1" xmlns="http://www.w3.org/2000/svg" viewBox="0 0 63 63">
  <defs>
    <style>
      .cls-1 {
        stroke: #000;
        stroke-miterlimit: 10;
      }
    </style>
  </defs>
  <path class="cls-1" d="m31.12,61c-11.16,0-21.34-6.14-26.55-16.02-.26-.5-.07-1.11.43-1.37.5-.26,1.11-.07,1.38.42,4.86,9.21,14.34,14.93,24.75,14.93,14.48,0,26.73-11.29,27.87-25.71.06-.74.09-1.5.09-2.25,0-.96-.05-1.92-.15-2.87-1.46-14.31-13.42-25.1-27.82-25.1C15.7,3.04,3.15,15.58,3.15,31c0,1.16.07,2.33.21,3.47.07.56-.33,1.07-.88,1.13-.56.07-1.07-.33-1.13-.88-.15-1.22-.23-2.48-.23-3.72C1.12,14.46,14.58,1,31.12,1c15.45,0,28.28,11.58,29.84,26.93.1,1.01.16,2.05.16,3.07,0,.81-.03,1.62-.1,2.41-1.23,15.47-14.37,27.59-29.9,27.59Z"/>
  <path class="cls-1" d="m31.83,47.73s-.04,0-.06,0c-.42-.02-.78-.3-.91-.69l-9.61-28.58-5.75,16.84c-.14.41-.53.69-.96.69H2.41c-.56,0-1.02-.46-1.02-1.02s.46-1.02,1.02-1.02h11.42l6.48-18.99c.14-.41.53-.69.96-.69h0c.44,0,.82.28.96.69l9.75,29.02,8.43-18.07c.17-.36.52-.58.91-.59.4-.03.75.22.92.57l3.96,8.06h13.62c.56,0,1.02.46,1.02,1.02s-.46,1.02-1.02,1.02h-14.26c-.39,0-.74-.22-.91-.57l-3.3-6.72-8.6,18.45c-.17.36-.53.59-.92.59Z"/>
</svg>