<?xml version="1.0" encoding="UTF-8"?>
<svg id="Layer_1" data-name="Layer 1" xmlns="http://www.w3.org/2000/svg" viewBox="0 0 63 63">
  <defs>
    <style>
      .cls-1 {
        stroke: #000;
        stroke-miterlimit: 10;
      }
    </style>
  </defs>
  <g>
    <path class="cls-1" d="m31.53,45.17c-.6,0-1.09-.49-1.09-1.09v-24.61c0-.6.49-1.09,1.09-1.09s1.09.49,1.09,1.09v24.61c0,.6-.49,1.09-1.09,1.09Z"/>
    <path class="cls-1" d="m43.83,32.87h-24.61c-.6,0-1.09-.49-1.09-1.09s.49-1.09,1.09-1.09h24.61c.6,0,1.09.49,1.09,1.09s-.49,1.09-1.09,1.09Z"/>
  </g>
  <path class="cls-1" d="m31.53,62c-1.8,0-3.58-.48-5.14-1.38l-17.28-9.98c-3.17-1.83-5.14-5.24-5.14-8.91v-19.95c0-3.66,1.97-7.08,5.14-8.91L26.38,2.91c3.12-1.8,7.16-1.8,10.28,0l17.28,9.98c3.17,1.83,5.14,5.24,5.14,8.91v19.95c0,3.66-1.97,7.08-5.14,8.91l-17.28,9.98c-1.56.9-3.34,1.38-5.14,1.38Zm0-58.29c-1.42,0-2.82.38-4.05,1.09L10.19,14.77c-2.5,1.44-4.05,4.14-4.05,7.02v19.95c0,2.89,1.55,5.58,4.05,7.02l17.28,9.98c2.46,1.42,5.65,1.42,8.11,0l17.28-9.98c2.5-1.44,4.06-4.14,4.06-7.02v-19.95c0-2.89-1.55-5.58-4.06-7.02l-17.28-9.98c-1.23-.71-2.63-1.09-4.06-1.09Z"/>
</svg>