<?xml version="1.0" encoding="UTF-8"?>
<svg id="Layer_1" data-name="Layer 1" xmlns="http://www.w3.org/2000/svg" viewBox="0 0 63 63">
  <defs>
    <style>
      .cls-1 {
        stroke: #000;
        stroke-miterlimit: 10;
      }
    </style>
  </defs>
  <path class="cls-1" d="m31.5,36.71c-14.79,0-30.5-3.65-30.5-10.4,0-3.05,3.3-5.7,9.53-7.65.49-.15,1.01.12,1.16.61.15.49-.12,1.01-.61,1.16-5.15,1.62-8.23,3.82-8.23,5.88,0,4.04,11.76,8.54,28.64,8.54s28.64-4.5,28.64-8.54c0-2.21-3.43-4.52-9.18-6.17-.49-.14-.78-.66-.64-1.15s.66-.78,1.15-.64c6.78,1.95,10.52,4.77,10.52,7.95,0,6.76-15.71,10.4-30.5,10.4Z"/>
  <path class="cls-1" d="m31.5,57c-8.57,0-13.8-2.74-14.02-2.86C3.96,45.09,1.28,28.91,1.17,28.22c-.08-.51.27-.98.77-1.06.5-.08.98.27,1.06.77.03.16,2.67,16.04,15.39,24.59.47.24,5.4,2.62,13.11,2.62s12.64-2.39,13.11-2.62c12.71-8.55,15.36-24.43,15.39-24.59.08-.51.56-.85,1.06-.77.51.08.85.55.77,1.06-.11.68-2.79,16.87-16.23,25.87-.3.16-5.53,2.91-14.1,2.91Z"/>
  <g>
    <path class="cls-1" d="m16.34,25.91c-.51,0-.93-.42-.93-.93,0-4.99,5.16-9.31,5.37-9.49,3.67-2.86,3.74-8.01,3.74-8.06,0-.51.42-.92.93-.92h0c.51,0,.93.42.92.93,0,.25-.08,6.12-4.43,9.51-.02.02-4.68,3.93-4.68,8.04,0,.51-.42.93-.93.93Z"/>
    <path class="cls-1" d="m26.94,25.91c-.51,0-.93-.42-.93-.93,0-4.99,5.16-9.31,5.38-9.49,3.67-2.86,3.74-8.01,3.74-8.06,0-.51.46-.91.93-.92.51,0,.93.42.92.93,0,.25-.08,6.12-4.43,9.51-.02.02-4.68,3.93-4.68,8.04,0,.51-.42.93-.93.93Z"/>
    <path class="cls-1" d="m37.54,25.91c-.51,0-.93-.42-.93-.93,0-4.99,5.16-9.31,5.37-9.49,3.67-2.86,3.74-8.01,3.74-8.06,0-.51.45-.91.93-.92.51,0,.93.42.92.93,0,.25-.08,6.12-4.43,9.51-.02.02-4.68,3.93-4.68,8.04,0,.51-.42.93-.93.93Z"/>
  </g>
</svg>