<?xml version="1.0" encoding="UTF-8"?>
<svg id="Layer_1" data-name="Layer 1" xmlns="http://www.w3.org/2000/svg" viewBox="0 0 63 63">
  <defs>
    <style>
      .cls-1 {
        stroke: #000;
        stroke-miterlimit: 10;
      }
    </style>
  </defs>
  <g>
    <path class="cls-1" d="m30.98,48.23c-.56,0-1.01-.45-1.01-1.01v-20.62c0-.56.45-1.01,1.01-1.01s1.01.45,1.01,1.01v20.62c0,.56-.45,1.01-1.01,1.01Z"/>
    <path class="cls-1" d="m41.29,37.92h-20.62c-.56,0-1.01-.45-1.01-1.01s.45-1.01,1.01-1.01h20.62c.56,0,1.01.45,1.01,1.01s-.45,1.01-1.01,1.01Z"/>
  </g>
  <path class="cls-1" d="m29.74,61.36h-.04c-8.33-.42-15.04-4.66-18.96-11.96-2.67-4.97-2.97-10.58-.9-16.68,1.35-3.99,3.42-7.91,6.71-12.73,1.84-2.7,3.75-5.41,5.59-8.03,1.23-1.75,2.45-3.49,3.67-5.25.53-.76,1.02-1.54,1.52-2.32.34-.54.68-1.07,1.03-1.6.61-.93,1.6-1.48,2.66-1.48s1.99.52,2.61,1.42l2.99,4.34c2.69,3.9,5.37,7.79,8.05,11.7,2.35,3.43,5,7.56,6.85,12.15,1.33,3.3,1.96,6.08,1.98,8.77.06,8-3.55,14.25-10.72,18.55-3.59,2.16-7.61,3.13-13.03,3.13Zm1.27-58.04c-.38,0-.73.21-.98.57-.34.52-.68,1.04-1.01,1.57-.51.8-1.02,1.61-1.56,2.39-1.22,1.76-2.45,3.51-3.68,5.26-1.84,2.62-3.74,5.33-5.57,8.01-3.18,4.66-5.17,8.44-6.46,12.24-1.91,5.63-1.66,10.56.77,15.08,4.57,8.52,11.89,10.63,17.22,10.9h0c5.03,0,8.73-.88,11.99-2.84,6.51-3.92,9.79-9.57,9.74-16.81-.02-2.42-.6-4.97-1.83-8.03-1.78-4.41-4.36-8.42-6.65-11.77-2.67-3.9-5.36-7.8-8.04-11.69l-2.99-4.34c-.24-.35-.58-.55-.95-.55Z"/>
</svg>